<?xml version="1.0" encoding="UTF-8"?>
<svg id="Layer_1" data-name="Layer 1" xmlns="http://www.w3.org/2000/svg" viewBox="0 0 119.07 116.79">
  <defs>
    <style>
      .cls-1 {
        fill: #002e00;
      }

      .cls-1, .cls-2 {
        stroke: #001f14;
        stroke-miterlimit: 10;
      }

      .cls-2 {
        fill: #001f14;
      }
    </style>
  </defs>
  <rect class="cls-1" x="103.07" y=".72" width="15.5" height="115.57" rx="3.59" ry="3.59"/>
  <rect class="cls-2" x="3.01" y=".72" width="99.38" height="14.25" rx="3.59" ry="3.59"/>
  <path class="cls-1" d="M106.44,7.09c-.25-1.55-1.41-2.82-2.94-3.09-5.43-.96-11.52-.28-17.99,2.19-19.74,7.55-30.51,26.22-36.88,52.2-5.84,21.71-12.75,32.06-25.84,37.06-6.25,2.39-11.8,2.33-16.18-.09-2.38-1.31-5.3,.5-5.38,3.25-.13,4.41-.06,8.83,.07,13.24,.05,1.65,1.13,3.12,2.7,3.53,6.53,1.7,13.98,.94,21.64-1.99,20.57-7.87,31.08-24.3,38.43-51.5,6.01-22.2,11.81-33.19,24.9-38.2,3.88-1.48,8.15-1.87,11.96-.54,2.21,.77,4.54-.81,4.85-3.16,.2-1.51,.36-3.01,.37-4.51,.02-2.39-.01-4.87,.3-7.29,.05-.36,.05-.72-.01-1.08v-.03h0Z"/>
  <path class="cls-2" d="M111.46,.5c6.5,0,7.23,3.41,6.5,7.13-.61,3.15-1.06,5.41-.99,6.99,.08,1.91-.05,3.8,0,6.86,.21,13.89-3.46,24.5-14.21,30.98-9.9,5.96-22.59,10.8-41.12,10.82-18.7,.02-34.02-3.82-44.58-10.95C6.35,45.18,.54,33.39,.5,18.54c0-5.58,.3-10.45,.84-14.72,.23-1.82,1.83-3.2,3.74-3.2l106.38-.11h0ZM16.42,10.47c-1.92,0-3.55,1.39-3.75,3.22-.21,2.02-.27,4.34-.27,6.76,.05,21.09,17.76,32.53,48.71,32.5,27.04,.08,44.19-10.14,44.13-31.01,0-3.44-.32-6.31-.79-8.62-.35-1.71-1.9-2.95-3.71-2.95l-84.33,.09h0Z"/>
</svg>